# xmcd
#
# Track frame offsets: 
#        150
#        14767
#        22155
#        30995
#        41802
#        49410
#        63782
#        73877
#        79165
#        94895
#        121322
#        136710
#        144342
#        153070
#        166247
#        174162
#        190922
#        199680
#        207165
#        218290
#        226095
#        233290
#        242070
#        254987
#        262385
#        274082
#
# Disc length: 3808 seconds
#
# Revision: 4
# Processed by: cddbd v1.5.1PL2 Copyright (c) Steve Scherf et al.
# Submitted via: ExactAudioCopy v0.95b2
#
DISCID=6b0ede1a
DTITLE=Kollaa kest‰‰ - Kokonaan
DYEAR=1995
DGENRE=Punk Rock
TTITLE0=Syksy
TTITLE1=K‰nniss‰ aamulla
TTITLE2=Kaupunkisissi
TTITLE3=P‰iv‰ tavaratalossa
TTITLE4=Oma jukeboxi
TTITLE5=Kaupungin valot
TTITLE6=J‰lleen yksi p‰iv‰
TTITLE7=Tytˆt hymyilee
TTITLE8=N‰in el‰m‰ jatkuu
TTITLE9=Mun huoneeni
TTITLE10=Talven j‰lkeen
TTITLE11=Millaista on
TTITLE12=Kev‰t
TTITLE13=J‰‰hyv‰iset aseille
TTITLE14=Musti sotakoira
TTITLE15=T‰htien rauha
TTITLE16=Yhden soinnun ihme
TTITLE17=Johnny Rotten go-go
TTITLE18=T‰t‰ oli el‰m‰ni
TTITLE19=Kollaa kest‰‰ go-go
TTITLE20=Ramones and Stravinsky
TTITLE21=Kulttuurilaulu
TTITLE22=Kirjoituksia kellarista
TTITLE23=Kuumat raiteet
TTITLE24=Tonttuarmeija
TTITLE25=Advert's blues
EXTD=YEAR: 2000
EXTT0=
EXTT1=
EXTT2=
EXTT3=
EXTT4=
EXTT5=
EXTT6=
EXTT7=
EXTT8=
EXTT9=
EXTT10=
EXTT11=
EXTT12=
EXTT13=
EXTT14=
EXTT15=
EXTT16=
EXTT17=
EXTT18=
EXTT19=
EXTT20=
EXTT21=
EXTT22=
EXTT23=
EXTT24=
EXTT25=
PLAYORDER=
